<mxfile host="app.diagrams.net" agent="Mozilla/5.0 (Windows NT 10.0; Win64; x64) AppleWebKit/537.36 (KHTML, like Gecko) Chrome/137.0.0.0 Safari/537.36" version="27.1.6">
  <diagram name="Pagina-1" id="7_gukq6R4mdLigI31BhO">
    <mxGraphModel dx="2102" dy="1007" grid="1" gridSize="10" guides="1" tooltips="1" connect="1" arrows="1" fold="1" page="1" pageScale="1" pageWidth="1100" pageHeight="850" math="0" shadow="0">
      <root>
        <mxCell id="0" />
        <mxCell id="1" parent="0" />
        <mxCell id="COkU2fSATZZKALUQtowK-6" style="edgeStyle=orthogonalEdgeStyle;rounded=0;orthogonalLoop=1;jettySize=auto;html=1;entryX=0;entryY=0.5;entryDx=0;entryDy=0;" edge="1" parent="1" source="COkU2fSATZZKALUQtowK-2" target="COkU2fSATZZKALUQtowK-23">
          <mxGeometry relative="1" as="geometry">
            <mxPoint x="280" y="140" as="targetPoint" />
          </mxGeometry>
        </mxCell>
        <mxCell id="COkU2fSATZZKALUQtowK-2" value="" style="shape=ellipse;html=1;fillColor=strokeColor;fontSize=18;fontColor=#ffffff;" vertex="1" parent="1">
          <mxGeometry x="170" y="130" width="20" height="20" as="geometry" />
        </mxCell>
        <mxCell id="COkU2fSATZZKALUQtowK-32" style="edgeStyle=orthogonalEdgeStyle;rounded=0;orthogonalLoop=1;jettySize=auto;html=1;entryX=0;entryY=0.5;entryDx=0;entryDy=0;" edge="1" parent="1">
          <mxGeometry relative="1" as="geometry">
            <mxPoint x="400" y="130" as="sourcePoint" />
            <mxPoint x="479.9999999999999" y="130" as="targetPoint" />
          </mxGeometry>
        </mxCell>
        <mxCell id="COkU2fSATZZKALUQtowK-35" value="&lt;font&gt;turnOn()&lt;/font&gt;" style="edgeLabel;html=1;align=center;verticalAlign=middle;resizable=0;points=[];fontFamily=Courier New;" vertex="1" connectable="0" parent="COkU2fSATZZKALUQtowK-32">
          <mxGeometry x="-0.0333" relative="1" as="geometry">
            <mxPoint as="offset" />
          </mxGeometry>
        </mxCell>
        <mxCell id="COkU2fSATZZKALUQtowK-33" style="edgeStyle=orthogonalEdgeStyle;rounded=0;orthogonalLoop=1;jettySize=auto;html=1;exitX=0;exitY=0.5;exitDx=0;exitDy=0;entryX=1;entryY=0.5;entryDx=0;entryDy=0;" edge="1" parent="1">
          <mxGeometry relative="1" as="geometry">
            <mxPoint x="479.9999999999999" y="150" as="sourcePoint" />
            <mxPoint x="400" y="150" as="targetPoint" />
          </mxGeometry>
        </mxCell>
        <mxCell id="COkU2fSATZZKALUQtowK-36" value="&lt;font face=&quot;Courier New&quot;&gt;turnOff()&lt;/font&gt;" style="edgeLabel;html=1;align=center;verticalAlign=middle;resizable=0;points=[];" vertex="1" connectable="0" parent="COkU2fSATZZKALUQtowK-33">
          <mxGeometry x="0.0267" relative="1" as="geometry">
            <mxPoint x="1" as="offset" />
          </mxGeometry>
        </mxCell>
        <mxCell id="COkU2fSATZZKALUQtowK-42" style="edgeStyle=orthogonalEdgeStyle;rounded=0;orthogonalLoop=1;jettySize=auto;html=1;entryX=0;entryY=0.5;entryDx=0;entryDy=0;" edge="1" parent="1" source="COkU2fSATZZKALUQtowK-43" target="COkU2fSATZZKALUQtowK-45">
          <mxGeometry relative="1" as="geometry">
            <mxPoint x="280" y="420" as="targetPoint" />
          </mxGeometry>
        </mxCell>
        <mxCell id="COkU2fSATZZKALUQtowK-43" value="" style="shape=ellipse;html=1;fillColor=strokeColor;fontSize=18;fontColor=#ffffff;" vertex="1" parent="1">
          <mxGeometry x="170" y="410" width="20" height="20" as="geometry" />
        </mxCell>
        <mxCell id="COkU2fSATZZKALUQtowK-62" value="&lt;font style=&quot;font-size: 10px;&quot;&gt;&lt;i&gt;Device is created...&lt;/i&gt;&lt;/font&gt;" style="text;html=1;align=center;verticalAlign=middle;whiteSpace=wrap;rounded=0;" vertex="1" parent="1">
          <mxGeometry x="120" y="100" width="120" height="30" as="geometry" />
        </mxCell>
        <mxCell id="COkU2fSATZZKALUQtowK-64" value="&lt;font style=&quot;font-size: 10px;&quot;&gt;&lt;i&gt;Door is created...&lt;/i&gt;&lt;/font&gt;" style="text;html=1;align=center;verticalAlign=middle;whiteSpace=wrap;rounded=0;" vertex="1" parent="1">
          <mxGeometry x="120" y="380" width="120" height="30" as="geometry" />
        </mxCell>
        <mxCell id="COkU2fSATZZKALUQtowK-65" style="edgeStyle=orthogonalEdgeStyle;rounded=0;orthogonalLoop=1;jettySize=auto;html=1;exitX=1;exitY=0.5;exitDx=0;exitDy=0;entryX=0;entryY=0.5;entryDx=0;entryDy=0;" edge="1" parent="1">
          <mxGeometry relative="1" as="geometry">
            <mxPoint x="400" y="410.9999999999999" as="sourcePoint" />
            <mxPoint x="520" y="410.9999999999999" as="targetPoint" />
          </mxGeometry>
        </mxCell>
        <mxCell id="COkU2fSATZZKALUQtowK-66" value="&lt;font face=&quot;Courier New&quot;&gt;close()&lt;/font&gt;" style="edgeLabel;html=1;align=center;verticalAlign=middle;resizable=0;points=[];" vertex="1" connectable="0" parent="COkU2fSATZZKALUQtowK-65">
          <mxGeometry x="-0.0286" y="1" relative="1" as="geometry">
            <mxPoint as="offset" />
          </mxGeometry>
        </mxCell>
        <mxCell id="COkU2fSATZZKALUQtowK-67" style="edgeStyle=orthogonalEdgeStyle;rounded=0;orthogonalLoop=1;jettySize=auto;html=1;exitX=0;exitY=0.5;exitDx=0;exitDy=0;entryX=1;entryY=0.5;entryDx=0;entryDy=0;" edge="1" parent="1">
          <mxGeometry relative="1" as="geometry">
            <mxPoint x="520" y="431" as="sourcePoint" />
            <mxPoint x="400" y="431" as="targetPoint" />
          </mxGeometry>
        </mxCell>
        <mxCell id="COkU2fSATZZKALUQtowK-68" value="&lt;font face=&quot;Courier New&quot;&gt;open()&lt;/font&gt;" style="edgeLabel;html=1;align=center;verticalAlign=middle;resizable=0;points=[];" vertex="1" connectable="0" parent="COkU2fSATZZKALUQtowK-67">
          <mxGeometry x="0.0824" y="-2" relative="1" as="geometry">
            <mxPoint y="1" as="offset" />
          </mxGeometry>
        </mxCell>
        <mxCell id="COkU2fSATZZKALUQtowK-82" style="edgeStyle=orthogonalEdgeStyle;rounded=0;orthogonalLoop=1;jettySize=auto;html=1;exitX=1;exitY=0.5;exitDx=0;exitDy=0;entryX=0.25;entryY=1;entryDx=0;entryDy=0;" edge="1" parent="1" source="COkU2fSATZZKALUQtowK-76" target="COkU2fSATZZKALUQtowK-51">
          <mxGeometry relative="1" as="geometry" />
        </mxCell>
        <mxCell id="COkU2fSATZZKALUQtowK-84" value="&lt;font face=&quot;Courier New&quot;&gt;unlock()&lt;/font&gt;" style="edgeLabel;html=1;align=center;verticalAlign=middle;resizable=0;points=[];" vertex="1" connectable="0" parent="COkU2fSATZZKALUQtowK-82">
          <mxGeometry x="0.104" y="1" relative="1" as="geometry">
            <mxPoint x="1" as="offset" />
          </mxGeometry>
        </mxCell>
        <mxCell id="COkU2fSATZZKALUQtowK-87" style="edgeStyle=orthogonalEdgeStyle;rounded=0;orthogonalLoop=1;jettySize=auto;html=1;exitX=0;exitY=0.5;exitDx=0;exitDy=0;entryX=0.5;entryY=1;entryDx=0;entryDy=0;" edge="1" parent="1" source="COkU2fSATZZKALUQtowK-76" target="COkU2fSATZZKALUQtowK-45">
          <mxGeometry relative="1" as="geometry" />
        </mxCell>
        <mxCell id="COkU2fSATZZKALUQtowK-88" value="&lt;font face=&quot;Courier New&quot;&gt;open() / intrusion is detected&lt;/font&gt;" style="edgeLabel;html=1;align=center;verticalAlign=middle;resizable=0;points=[];" vertex="1" connectable="0" parent="COkU2fSATZZKALUQtowK-87">
          <mxGeometry x="0.376" y="1" relative="1" as="geometry">
            <mxPoint x="11" y="-10" as="offset" />
          </mxGeometry>
        </mxCell>
        <mxCell id="COkU2fSATZZKALUQtowK-76" value="" style="rounded=1;whiteSpace=wrap;html=1;fillColor=#f5f5f5;fontColor=#333333;strokeColor=#666666;" vertex="1" parent="1">
          <mxGeometry x="400" y="520" width="120" height="80" as="geometry" />
        </mxCell>
        <mxCell id="COkU2fSATZZKALUQtowK-77" value="" style="endArrow=none;html=1;rounded=0;entryX=1;entryY=0.25;entryDx=0;entryDy=0;exitX=0;exitY=0.25;exitDx=0;exitDy=0;" edge="1" parent="1" source="COkU2fSATZZKALUQtowK-76" target="COkU2fSATZZKALUQtowK-76">
          <mxGeometry width="50" height="50" relative="1" as="geometry">
            <mxPoint x="400" y="550" as="sourcePoint" />
            <mxPoint x="450" y="500" as="targetPoint" />
          </mxGeometry>
        </mxCell>
        <mxCell id="COkU2fSATZZKALUQtowK-78" value="LockedState" style="text;html=1;align=center;verticalAlign=middle;whiteSpace=wrap;rounded=0;" vertex="1" parent="1">
          <mxGeometry x="430" y="520" width="60" height="20" as="geometry" />
        </mxCell>
        <mxCell id="COkU2fSATZZKALUQtowK-81" style="edgeStyle=orthogonalEdgeStyle;rounded=0;orthogonalLoop=1;jettySize=auto;html=1;exitX=0.75;exitY=1;exitDx=0;exitDy=0;entryX=1;entryY=0.75;entryDx=0;entryDy=0;" edge="1" parent="1" source="COkU2fSATZZKALUQtowK-51" target="COkU2fSATZZKALUQtowK-76">
          <mxGeometry relative="1" as="geometry" />
        </mxCell>
        <mxCell id="COkU2fSATZZKALUQtowK-83" value="&lt;font face=&quot;Courier New&quot;&gt;lock()&lt;/font&gt;" style="edgeLabel;html=1;align=center;verticalAlign=middle;resizable=0;points=[];" vertex="1" connectable="0" parent="COkU2fSATZZKALUQtowK-81">
          <mxGeometry x="-0.4545" relative="1" as="geometry">
            <mxPoint y="3" as="offset" />
          </mxGeometry>
        </mxCell>
        <mxCell id="COkU2fSATZZKALUQtowK-85" style="edgeStyle=orthogonalEdgeStyle;rounded=0;orthogonalLoop=1;jettySize=auto;html=1;exitX=0.75;exitY=1;exitDx=0;exitDy=0;entryX=0.25;entryY=1;entryDx=0;entryDy=0;" edge="1" parent="1" source="COkU2fSATZZKALUQtowK-76" target="COkU2fSATZZKALUQtowK-76">
          <mxGeometry relative="1" as="geometry" />
        </mxCell>
        <mxCell id="COkU2fSATZZKALUQtowK-86" value="&lt;font face=&quot;Courier New&quot;&gt;close()&lt;/font&gt;" style="edgeLabel;html=1;align=center;verticalAlign=middle;resizable=0;points=[];" vertex="1" connectable="0" parent="COkU2fSATZZKALUQtowK-85">
          <mxGeometry x="0.0008" relative="1" as="geometry">
            <mxPoint y="10" as="offset" />
          </mxGeometry>
        </mxCell>
        <mxCell id="COkU2fSATZZKALUQtowK-23" value="" style="rounded=1;whiteSpace=wrap;html=1;fillColor=#f5f5f5;strokeColor=#666666;fontColor=#333333;" vertex="1" parent="1">
          <mxGeometry x="280" y="100" width="120" height="80" as="geometry" />
        </mxCell>
        <mxCell id="COkU2fSATZZKALUQtowK-25" value="" style="endArrow=none;html=1;rounded=0;entryX=1;entryY=0.25;entryDx=0;entryDy=0;exitX=0;exitY=0.25;exitDx=0;exitDy=0;" edge="1" parent="1" source="COkU2fSATZZKALUQtowK-23" target="COkU2fSATZZKALUQtowK-23">
          <mxGeometry width="50" height="50" relative="1" as="geometry">
            <mxPoint x="280" y="130" as="sourcePoint" />
            <mxPoint x="330" y="80" as="targetPoint" />
          </mxGeometry>
        </mxCell>
        <mxCell id="COkU2fSATZZKALUQtowK-26" value="OffState" style="text;html=1;align=center;verticalAlign=middle;whiteSpace=wrap;rounded=0;" vertex="1" parent="1">
          <mxGeometry x="310" y="100" width="60" height="20" as="geometry" />
        </mxCell>
        <mxCell id="COkU2fSATZZKALUQtowK-37" style="edgeStyle=orthogonalEdgeStyle;rounded=0;orthogonalLoop=1;jettySize=auto;html=1;exitX=0.25;exitY=1;exitDx=0;exitDy=0;entryX=0.75;entryY=1;entryDx=0;entryDy=0;" edge="1" parent="1" source="COkU2fSATZZKALUQtowK-23" target="COkU2fSATZZKALUQtowK-23">
          <mxGeometry relative="1" as="geometry" />
        </mxCell>
        <mxCell id="COkU2fSATZZKALUQtowK-39" value="&lt;font face=&quot;Courier New&quot;&gt;turnOff()&lt;/font&gt;" style="edgeLabel;html=1;align=center;verticalAlign=middle;resizable=0;points=[];" vertex="1" connectable="0" parent="COkU2fSATZZKALUQtowK-37">
          <mxGeometry x="-0.0381" y="-1" relative="1" as="geometry">
            <mxPoint x="2" y="9" as="offset" />
          </mxGeometry>
        </mxCell>
        <mxCell id="COkU2fSATZZKALUQtowK-29" value="" style="rounded=1;whiteSpace=wrap;html=1;fillColor=#f5f5f5;fontColor=#333333;strokeColor=#666666;" vertex="1" parent="1">
          <mxGeometry x="480" y="100" width="120" height="80" as="geometry" />
        </mxCell>
        <mxCell id="COkU2fSATZZKALUQtowK-30" value="" style="endArrow=none;html=1;rounded=0;entryX=1;entryY=0.25;entryDx=0;entryDy=0;exitX=0;exitY=0.25;exitDx=0;exitDy=0;" edge="1" parent="1" source="COkU2fSATZZKALUQtowK-29" target="COkU2fSATZZKALUQtowK-29">
          <mxGeometry width="50" height="50" relative="1" as="geometry">
            <mxPoint x="480" y="130" as="sourcePoint" />
            <mxPoint x="530" y="80" as="targetPoint" />
          </mxGeometry>
        </mxCell>
        <mxCell id="COkU2fSATZZKALUQtowK-31" value="OnState" style="text;html=1;align=center;verticalAlign=middle;whiteSpace=wrap;rounded=0;" vertex="1" parent="1">
          <mxGeometry x="510" y="100" width="60" height="20" as="geometry" />
        </mxCell>
        <mxCell id="COkU2fSATZZKALUQtowK-38" style="edgeStyle=orthogonalEdgeStyle;rounded=0;orthogonalLoop=1;jettySize=auto;html=1;exitX=0.25;exitY=1;exitDx=0;exitDy=0;entryX=0.75;entryY=1;entryDx=0;entryDy=0;" edge="1" parent="1" source="COkU2fSATZZKALUQtowK-29" target="COkU2fSATZZKALUQtowK-29">
          <mxGeometry relative="1" as="geometry" />
        </mxCell>
        <mxCell id="COkU2fSATZZKALUQtowK-40" value="&lt;font face=&quot;Courier New&quot;&gt;turnOn()&lt;/font&gt;" style="edgeLabel;html=1;align=center;verticalAlign=middle;resizable=0;points=[];" vertex="1" connectable="0" parent="COkU2fSATZZKALUQtowK-38">
          <mxGeometry x="0.0286" y="1" relative="1" as="geometry">
            <mxPoint x="-1" y="12" as="offset" />
          </mxGeometry>
        </mxCell>
        <mxCell id="COkU2fSATZZKALUQtowK-45" value="" style="rounded=1;whiteSpace=wrap;html=1;fillColor=#f5f5f5;fontColor=#333333;strokeColor=#666666;" vertex="1" parent="1">
          <mxGeometry x="280" y="380" width="120" height="80" as="geometry" />
        </mxCell>
        <mxCell id="COkU2fSATZZKALUQtowK-46" value="" style="endArrow=none;html=1;rounded=0;entryX=1;entryY=0.25;entryDx=0;entryDy=0;exitX=0;exitY=0.25;exitDx=0;exitDy=0;" edge="1" parent="1" source="COkU2fSATZZKALUQtowK-45" target="COkU2fSATZZKALUQtowK-45">
          <mxGeometry width="50" height="50" relative="1" as="geometry">
            <mxPoint x="280" y="410" as="sourcePoint" />
            <mxPoint x="330" y="360" as="targetPoint" />
          </mxGeometry>
        </mxCell>
        <mxCell id="COkU2fSATZZKALUQtowK-60" style="edgeStyle=orthogonalEdgeStyle;rounded=0;orthogonalLoop=1;jettySize=auto;html=1;exitX=0;exitY=0;exitDx=0;exitDy=0;entryX=0.75;entryY=0;entryDx=0;entryDy=0;" edge="1" parent="1" source="COkU2fSATZZKALUQtowK-47" target="COkU2fSATZZKALUQtowK-45">
          <mxGeometry relative="1" as="geometry">
            <Array as="points">
              <mxPoint x="310" y="360" />
              <mxPoint x="370" y="360" />
            </Array>
          </mxGeometry>
        </mxCell>
        <mxCell id="COkU2fSATZZKALUQtowK-61" value="&lt;font face=&quot;Courier New&quot;&gt;lock()&lt;/font&gt;&lt;div&gt;&lt;font face=&quot;Courier New&quot;&gt;unlock()&lt;/font&gt;&lt;/div&gt;&lt;div&gt;&lt;font face=&quot;Courier New&quot;&gt;open()&lt;/font&gt;&lt;/div&gt;" style="edgeLabel;html=1;align=center;verticalAlign=middle;resizable=0;points=[];" vertex="1" connectable="0" parent="COkU2fSATZZKALUQtowK-60">
          <mxGeometry x="-0.0057" y="1" relative="1" as="geometry">
            <mxPoint x="1" y="-24" as="offset" />
          </mxGeometry>
        </mxCell>
        <mxCell id="COkU2fSATZZKALUQtowK-47" value="OpenedState" style="text;html=1;align=center;verticalAlign=middle;whiteSpace=wrap;rounded=0;" vertex="1" parent="1">
          <mxGeometry x="310" y="380" width="60" height="20" as="geometry" />
        </mxCell>
        <mxCell id="COkU2fSATZZKALUQtowK-51" value="" style="rounded=1;whiteSpace=wrap;html=1;fillColor=#f5f5f5;fontColor=#333333;strokeColor=#666666;" vertex="1" parent="1">
          <mxGeometry x="520" y="380" width="120" height="80" as="geometry" />
        </mxCell>
        <mxCell id="COkU2fSATZZKALUQtowK-52" value="" style="endArrow=none;html=1;rounded=0;entryX=1;entryY=0.25;entryDx=0;entryDy=0;exitX=0;exitY=0.25;exitDx=0;exitDy=0;" edge="1" parent="1" source="COkU2fSATZZKALUQtowK-51" target="COkU2fSATZZKALUQtowK-51">
          <mxGeometry width="50" height="50" relative="1" as="geometry">
            <mxPoint x="520" y="410" as="sourcePoint" />
            <mxPoint x="570" y="360" as="targetPoint" />
          </mxGeometry>
        </mxCell>
        <mxCell id="COkU2fSATZZKALUQtowK-53" value="ClosedState" style="text;html=1;align=center;verticalAlign=middle;whiteSpace=wrap;rounded=0;" vertex="1" parent="1">
          <mxGeometry x="550" y="380" width="60" height="20" as="geometry" />
        </mxCell>
        <mxCell id="COkU2fSATZZKALUQtowK-70" style="edgeStyle=orthogonalEdgeStyle;rounded=0;orthogonalLoop=1;jettySize=auto;html=1;exitX=0;exitY=0;exitDx=0;exitDy=0;entryX=1;entryY=0;entryDx=0;entryDy=0;" edge="1" parent="1" source="COkU2fSATZZKALUQtowK-53" target="COkU2fSATZZKALUQtowK-53">
          <mxGeometry relative="1" as="geometry">
            <Array as="points">
              <mxPoint x="550" y="360" />
              <mxPoint x="610" y="360" />
            </Array>
          </mxGeometry>
        </mxCell>
        <mxCell id="COkU2fSATZZKALUQtowK-71" value="&lt;font face=&quot;Courier New&quot;&gt;unlock()&lt;/font&gt;&lt;div&gt;&lt;font face=&quot;Courier New&quot;&gt;close()&lt;/font&gt;&lt;/div&gt;" style="edgeLabel;html=1;align=center;verticalAlign=middle;resizable=0;points=[];" vertex="1" connectable="0" parent="COkU2fSATZZKALUQtowK-70">
          <mxGeometry x="-0.0309" relative="1" as="geometry">
            <mxPoint x="1" y="-20" as="offset" />
          </mxGeometry>
        </mxCell>
        <mxCell id="COkU2fSATZZKALUQtowK-89" style="edgeStyle=orthogonalEdgeStyle;rounded=0;orthogonalLoop=1;jettySize=auto;html=1;entryX=0;entryY=0.5;entryDx=0;entryDy=0;" edge="1" parent="1" source="COkU2fSATZZKALUQtowK-90" target="COkU2fSATZZKALUQtowK-107">
          <mxGeometry relative="1" as="geometry">
            <mxPoint x="280" y="1180" as="targetPoint" />
          </mxGeometry>
        </mxCell>
        <mxCell id="COkU2fSATZZKALUQtowK-90" value="" style="shape=ellipse;html=1;fillColor=strokeColor;fontSize=18;fontColor=#ffffff;" vertex="1" parent="1">
          <mxGeometry x="170" y="1170" width="20" height="20" as="geometry" />
        </mxCell>
        <mxCell id="COkU2fSATZZKALUQtowK-91" value="&lt;font style=&quot;font-size: 10px;&quot;&gt;&lt;i&gt;Speaker is created...&lt;/i&gt;&lt;/font&gt;" style="text;html=1;align=center;verticalAlign=middle;whiteSpace=wrap;rounded=0;" vertex="1" parent="1">
          <mxGeometry x="120" y="1140" width="120" height="30" as="geometry" />
        </mxCell>
        <mxCell id="COkU2fSATZZKALUQtowK-92" style="edgeStyle=orthogonalEdgeStyle;rounded=0;orthogonalLoop=1;jettySize=auto;html=1;exitX=1;exitY=0.5;exitDx=0;exitDy=0;entryX=0;entryY=0.5;entryDx=0;entryDy=0;" edge="1" parent="1">
          <mxGeometry relative="1" as="geometry">
            <mxPoint x="400" y="1171" as="sourcePoint" />
            <mxPoint x="520" y="1171" as="targetPoint" />
          </mxGeometry>
        </mxCell>
        <mxCell id="COkU2fSATZZKALUQtowK-117" value="&lt;font face=&quot;Courier New&quot;&gt;play()&lt;/font&gt;" style="edgeLabel;html=1;align=center;verticalAlign=middle;resizable=0;points=[];" vertex="1" connectable="0" parent="COkU2fSATZZKALUQtowK-92">
          <mxGeometry x="-0.0581" relative="1" as="geometry">
            <mxPoint x="4" y="-1" as="offset" />
          </mxGeometry>
        </mxCell>
        <mxCell id="COkU2fSATZZKALUQtowK-94" style="edgeStyle=orthogonalEdgeStyle;rounded=0;orthogonalLoop=1;jettySize=auto;html=1;exitX=0;exitY=0.5;exitDx=0;exitDy=0;entryX=1;entryY=0.5;entryDx=0;entryDy=0;" edge="1" parent="1">
          <mxGeometry relative="1" as="geometry">
            <mxPoint x="520" y="1191" as="sourcePoint" />
            <mxPoint x="400" y="1191" as="targetPoint" />
          </mxGeometry>
        </mxCell>
        <mxCell id="COkU2fSATZZKALUQtowK-118" value="&lt;span style=&quot;font-family: &amp;quot;Courier New&amp;quot;;&quot;&gt;stop()&lt;/span&gt;" style="edgeLabel;html=1;align=center;verticalAlign=middle;resizable=0;points=[];" vertex="1" connectable="0" parent="COkU2fSATZZKALUQtowK-94">
          <mxGeometry x="0.046" y="2" relative="1" as="geometry">
            <mxPoint x="3" as="offset" />
          </mxGeometry>
        </mxCell>
        <mxCell id="COkU2fSATZZKALUQtowK-96" style="edgeStyle=orthogonalEdgeStyle;rounded=0;orthogonalLoop=1;jettySize=auto;html=1;exitX=1;exitY=0.5;exitDx=0;exitDy=0;entryX=0.25;entryY=1;entryDx=0;entryDy=0;" edge="1" parent="1" source="COkU2fSATZZKALUQtowK-100" target="COkU2fSATZZKALUQtowK-112">
          <mxGeometry relative="1" as="geometry" />
        </mxCell>
        <mxCell id="COkU2fSATZZKALUQtowK-119" value="&lt;span style=&quot;font-family: &amp;quot;Courier New&amp;quot;;&quot;&gt;play()&lt;/span&gt;" style="edgeLabel;html=1;align=center;verticalAlign=middle;resizable=0;points=[];" vertex="1" connectable="0" parent="COkU2fSATZZKALUQtowK-96">
          <mxGeometry x="0.1225" relative="1" as="geometry">
            <mxPoint y="3" as="offset" />
          </mxGeometry>
        </mxCell>
        <mxCell id="COkU2fSATZZKALUQtowK-98" style="edgeStyle=orthogonalEdgeStyle;rounded=0;orthogonalLoop=1;jettySize=auto;html=1;exitX=0;exitY=0.5;exitDx=0;exitDy=0;entryX=0.5;entryY=1;entryDx=0;entryDy=0;" edge="1" parent="1" source="COkU2fSATZZKALUQtowK-100" target="COkU2fSATZZKALUQtowK-107">
          <mxGeometry relative="1" as="geometry" />
        </mxCell>
        <mxCell id="COkU2fSATZZKALUQtowK-120" value="&lt;span style=&quot;font-family: &amp;quot;Courier New&amp;quot;;&quot;&gt;stop()&lt;/span&gt;" style="edgeLabel;html=1;align=center;verticalAlign=middle;resizable=0;points=[];" vertex="1" connectable="0" parent="COkU2fSATZZKALUQtowK-98">
          <mxGeometry x="0.277" y="-1" relative="1" as="geometry">
            <mxPoint x="-1" y="2" as="offset" />
          </mxGeometry>
        </mxCell>
        <mxCell id="COkU2fSATZZKALUQtowK-100" value="" style="rounded=1;whiteSpace=wrap;html=1;fillColor=#f5f5f5;fontColor=#333333;strokeColor=#666666;" vertex="1" parent="1">
          <mxGeometry x="400" y="1280" width="120" height="80" as="geometry" />
        </mxCell>
        <mxCell id="COkU2fSATZZKALUQtowK-101" value="" style="endArrow=none;html=1;rounded=0;entryX=1;entryY=0.25;entryDx=0;entryDy=0;exitX=0;exitY=0.25;exitDx=0;exitDy=0;" edge="1" parent="1" source="COkU2fSATZZKALUQtowK-100" target="COkU2fSATZZKALUQtowK-100">
          <mxGeometry width="50" height="50" relative="1" as="geometry">
            <mxPoint x="400" y="1310" as="sourcePoint" />
            <mxPoint x="450" y="1260" as="targetPoint" />
          </mxGeometry>
        </mxCell>
        <mxCell id="COkU2fSATZZKALUQtowK-102" value="PauseState" style="text;html=1;align=center;verticalAlign=middle;whiteSpace=wrap;rounded=0;" vertex="1" parent="1">
          <mxGeometry x="430" y="1280" width="60" height="20" as="geometry" />
        </mxCell>
        <mxCell id="COkU2fSATZZKALUQtowK-103" style="edgeStyle=orthogonalEdgeStyle;rounded=0;orthogonalLoop=1;jettySize=auto;html=1;exitX=0.75;exitY=1;exitDx=0;exitDy=0;entryX=1;entryY=0.75;entryDx=0;entryDy=0;" edge="1" parent="1" source="COkU2fSATZZKALUQtowK-112" target="COkU2fSATZZKALUQtowK-100">
          <mxGeometry relative="1" as="geometry" />
        </mxCell>
        <mxCell id="COkU2fSATZZKALUQtowK-121" value="&lt;span style=&quot;font-family: &amp;quot;Courier New&amp;quot;;&quot;&gt;pause()&lt;/span&gt;" style="edgeLabel;html=1;align=center;verticalAlign=middle;resizable=0;points=[];" vertex="1" connectable="0" parent="COkU2fSATZZKALUQtowK-103">
          <mxGeometry x="-0.4339" relative="1" as="geometry">
            <mxPoint y="1" as="offset" />
          </mxGeometry>
        </mxCell>
        <mxCell id="COkU2fSATZZKALUQtowK-105" style="edgeStyle=orthogonalEdgeStyle;rounded=0;orthogonalLoop=1;jettySize=auto;html=1;exitX=0.75;exitY=1;exitDx=0;exitDy=0;entryX=0.25;entryY=1;entryDx=0;entryDy=0;" edge="1" parent="1" source="COkU2fSATZZKALUQtowK-100" target="COkU2fSATZZKALUQtowK-100">
          <mxGeometry relative="1" as="geometry" />
        </mxCell>
        <mxCell id="COkU2fSATZZKALUQtowK-106" value="&lt;span style=&quot;font-family: &amp;quot;Courier New&amp;quot;;&quot;&gt;pause()&lt;/span&gt;" style="edgeLabel;html=1;align=center;verticalAlign=middle;resizable=0;points=[];" vertex="1" connectable="0" parent="COkU2fSATZZKALUQtowK-105">
          <mxGeometry x="0.0008" relative="1" as="geometry">
            <mxPoint y="10" as="offset" />
          </mxGeometry>
        </mxCell>
        <mxCell id="COkU2fSATZZKALUQtowK-107" value="" style="rounded=1;whiteSpace=wrap;html=1;fillColor=#f5f5f5;fontColor=#333333;strokeColor=#666666;" vertex="1" parent="1">
          <mxGeometry x="280" y="1140" width="120" height="80" as="geometry" />
        </mxCell>
        <mxCell id="COkU2fSATZZKALUQtowK-108" value="" style="endArrow=none;html=1;rounded=0;entryX=1;entryY=0.25;entryDx=0;entryDy=0;exitX=0;exitY=0.25;exitDx=0;exitDy=0;" edge="1" parent="1" source="COkU2fSATZZKALUQtowK-107" target="COkU2fSATZZKALUQtowK-107">
          <mxGeometry width="50" height="50" relative="1" as="geometry">
            <mxPoint x="280" y="1170" as="sourcePoint" />
            <mxPoint x="330" y="1120" as="targetPoint" />
          </mxGeometry>
        </mxCell>
        <mxCell id="COkU2fSATZZKALUQtowK-109" style="edgeStyle=orthogonalEdgeStyle;rounded=0;orthogonalLoop=1;jettySize=auto;html=1;exitX=0;exitY=0;exitDx=0;exitDy=0;entryX=0.75;entryY=0;entryDx=0;entryDy=0;" edge="1" parent="1" source="COkU2fSATZZKALUQtowK-111" target="COkU2fSATZZKALUQtowK-107">
          <mxGeometry relative="1" as="geometry">
            <Array as="points">
              <mxPoint x="310" y="1120" />
              <mxPoint x="370" y="1120" />
            </Array>
          </mxGeometry>
        </mxCell>
        <mxCell id="COkU2fSATZZKALUQtowK-110" value="&lt;font face=&quot;Courier New&quot;&gt;pause()&lt;/font&gt;&lt;div&gt;&lt;font face=&quot;Courier New&quot;&gt;stop()&lt;/font&gt;&lt;/div&gt;" style="edgeLabel;html=1;align=center;verticalAlign=middle;resizable=0;points=[];" vertex="1" connectable="0" parent="COkU2fSATZZKALUQtowK-109">
          <mxGeometry x="-0.0057" y="1" relative="1" as="geometry">
            <mxPoint y="-19" as="offset" />
          </mxGeometry>
        </mxCell>
        <mxCell id="COkU2fSATZZKALUQtowK-111" value="StopState" style="text;html=1;align=center;verticalAlign=middle;whiteSpace=wrap;rounded=0;" vertex="1" parent="1">
          <mxGeometry x="310" y="1140" width="60" height="20" as="geometry" />
        </mxCell>
        <mxCell id="COkU2fSATZZKALUQtowK-112" value="" style="rounded=1;whiteSpace=wrap;html=1;fillColor=#f5f5f5;fontColor=#333333;strokeColor=#666666;" vertex="1" parent="1">
          <mxGeometry x="520" y="1140" width="120" height="80" as="geometry" />
        </mxCell>
        <mxCell id="COkU2fSATZZKALUQtowK-113" value="" style="endArrow=none;html=1;rounded=0;entryX=1;entryY=0.25;entryDx=0;entryDy=0;exitX=0;exitY=0.25;exitDx=0;exitDy=0;" edge="1" parent="1" source="COkU2fSATZZKALUQtowK-112" target="COkU2fSATZZKALUQtowK-112">
          <mxGeometry width="50" height="50" relative="1" as="geometry">
            <mxPoint x="520" y="1170" as="sourcePoint" />
            <mxPoint x="570" y="1120" as="targetPoint" />
          </mxGeometry>
        </mxCell>
        <mxCell id="COkU2fSATZZKALUQtowK-114" value="PlayState" style="text;html=1;align=center;verticalAlign=middle;whiteSpace=wrap;rounded=0;" vertex="1" parent="1">
          <mxGeometry x="550" y="1140" width="60" height="20" as="geometry" />
        </mxCell>
        <mxCell id="COkU2fSATZZKALUQtowK-115" style="edgeStyle=orthogonalEdgeStyle;rounded=0;orthogonalLoop=1;jettySize=auto;html=1;exitX=0;exitY=0;exitDx=0;exitDy=0;entryX=1;entryY=0;entryDx=0;entryDy=0;" edge="1" parent="1" source="COkU2fSATZZKALUQtowK-114" target="COkU2fSATZZKALUQtowK-114">
          <mxGeometry relative="1" as="geometry">
            <Array as="points">
              <mxPoint x="550" y="1120" />
              <mxPoint x="610" y="1120" />
            </Array>
          </mxGeometry>
        </mxCell>
        <mxCell id="COkU2fSATZZKALUQtowK-116" value="&lt;font face=&quot;Courier New&quot;&gt;play()&lt;/font&gt;" style="edgeLabel;html=1;align=center;verticalAlign=middle;resizable=0;points=[];" vertex="1" connectable="0" parent="COkU2fSATZZKALUQtowK-115">
          <mxGeometry x="-0.0309" relative="1" as="geometry">
            <mxPoint x="2" y="-10" as="offset" />
          </mxGeometry>
        </mxCell>
      </root>
    </mxGraphModel>
  </diagram>
</mxfile>
